<svg width="275" height="150" viewBox="0 0 275 150" fill="none" xmlns="http://www.w3.org/2000/svg">
<path d="M9.0426 134.261C9.74646 113.153 18.321 109.214 34.7661 122.442C51.2112 135.67 59.7857 131.73 60.4895 110.623C61.1934 89.5152 69.7679 85.5755 86.213 98.8043C102.658 112.033 111.232 108.092 111.937 86.9848C112.64 65.8771 121.215 61.9375 137.66 75.1657C154.105 88.3941 162.679 84.4544 163.384 63.3467C164.087 42.2391 172.662 38.2994 189.107 51.5276C205.552 64.756 214.126 60.8163 214.831 39.7086C215.534 18.601 224.108 14.6613 240.554 27.8896C256.999 41.1179 265.573 37.1782 266.278 16.0706" stroke="#F8E3FC" stroke-width="3" stroke-dasharray="458.17 458.17"/>
</svg>
