<svg width="1413" height="874" fill="none" xmlns="http://www.w3.org/2000/svg"><path d="M696.167 570.739c-53.122 0-96.185-53.469-96.185-119.426 0-65.959 43.063-119.427 96.185-119.427 53.121 0 96.185 53.468 96.185 119.427 0 65.957-43.064 119.426-96.185 119.426z" fill="#FF6C46" stroke="#FF6C46" stroke-width="3" stroke-dasharray="565.21 565.21"/><path d="M435.76 716.932c66.063 70.821 158.351 114.792 260.407 114.792 87.394 0 167.59-32.226 230.309-85.937" stroke="#8C239F" stroke-width="3" stroke-linecap="round" stroke-linejoin="round" stroke-dasharray="488.96 488.96"/><path d="M1027.62 294.844c-57.172-105.953-184.075-179.682-331.455-179.682-148.392 0-276.03 74.728-332.621 181.873" stroke="#8C239F" stroke-width="3" stroke-linecap="round" stroke-linejoin="round" stroke-dasharray="700.53 700.53"/><path d="M412.529 450.277c0 181.694 126.988 328.981 283.652 328.981s283.65-147.287 283.65-328.981c0-181.693-126.992-291.975-283.65-291.975-156.66 0-283.652 110.282-283.652 291.975z" stroke="#FF6C46" stroke-width="3" stroke-linecap="round" stroke-linejoin="round" stroke-dasharray="1000 1000"/><path d="M447.149 451.319c0 143.82 111.488 260.418 249.015 260.418 137.529 0 249.022-116.598 249.022-260.418 0-143.821-114.289-260.418-251.818-260.418S447.149 307.493 447.149 451.319z" stroke="#FA99B6" stroke-width="3" stroke-linecap="round" stroke-linejoin="round" stroke-dasharray="1000 1000"/><path d="M1103.35 550.549c13.45 14.08 42.09 42.044 46.37 67.388 4.29 25.346-85.21 139.824-85.21 139.824l-77.311-101.374s-2.145-49.809 10.029-69.037c12.172-19.229 40.812-26.212 40.812-26.212l65.31-10.589zM1039.72 589.004c4.77 20.192-9.07 86.028-13.85 95.931" stroke="#8C239F" stroke-width="3" stroke-linecap="round" stroke-linejoin="round"/><path d="M864.35 481.419c-18.701-11.871-55.694-17.868-73.833-20.197-18.139-2.33-44.56-5.051-50.925-7.381-6.363-2.329-24.823-9.319-26.095-4.659-1.273 4.659-1.273 17.868 7.321 24.465 8.593 6.598 46.144 17.091 46.144 17.091s-7 5.828-8.273 13.593c-1.273 7.766.636 19.807.636 19.807s-7 6.622-3.818 22.528c3.182 15.904 17.823 24.856 27.368 25.248 9.546.391 13.685-1.553 15.293-8.158 0 0 16.551 6.213 25.159 9.711 8.607 3.498 24.171 6.213 24.171 6.213s73.824 115.351 104.374 160.797c30.551 45.445 78.288 115.742 132.398 105.286 54.1-10.458 61.43-73.446 70.02-142.767 8.59-69.322-2.86-111.861-31.51-115.936-28.65-4.075-45.83 23.316-52.04 63.5-6.2 40.184-10.02 65.252-10.02 65.252s-73.502-99.043-103.101-135.163c-29.598-36.121-73.379-86.612-93.269-99.23z" fill="#F7EEE1"/><path d="M713.499 449.182c1.135-4.161 15.948.957 23.649 3.762-3.71 7.152-7.4 8.242-13.468 7.983-4.261-.174-8.242-2.119-10.684-3.612-.271-2.725-.1-5.489.503-8.133z" fill="#EB532C"/><path d="M766.963 490.738c9.472-5.628 28.074-7.085 28.074-7.085M759.328 524.138c7.799-6.116 23.072-6.116 27.625-6.116M798.155 563.756c-6.907-2.618-9.309-.873-20.053-2.913-10.744-2.041-14.8-10.193-14.8-10.193M1060.72 715.812c23.15 28.836 48.22 71.639 48.22 71.639" stroke="#8C239F" stroke-width="2.91" stroke-linecap="round" stroke-linejoin="round"/><path d="M1021.57 319.069c-10.28-.837-14.08 3.787-15.75 6.412-1.66 2.624-4.54 5.821-10.027 4.075-5.491-1.746-11.696 1.457-12.412 5.828-.715 4.37.495 11.649.495 11.649s-15.037-4.076-24.825 7.284c-9.786 11.359-10.743 29.42-8.835 50.684 1.91 21.262.706 35.246-3.832 42.832-4.539 7.585-9.072 9.903-9.072 9.903s5.49 11.656 14.306 16.603c8.815 4.949 16.013 10.217 19.589 11.932 3.577 1.717 10.981 2.625 10.981 2.625l73.042-.602 6.99-11.113s9.96-8.428 17.12-10.15c7.16-1.721 21.7-7.284 25.53-15.152 3.84-7.869 7.17-13.396 13.86-18.35 6.68-4.954 15.99-18.349 17.42-24.76 0 0-9.07-4.076-12.42-17.459-3.33-13.382-4.77-22.135-10.97-26.488-6.21-4.353-11.47-.873-18.62-.873s-11.22-11.655-13.84-18.355c-2.64-6.701-10.27-18.663-20.3-17.765-10.03.896-10.02 6.115-17.42 4.363-7.4-1.75-10.26-12.25-21.01-13.123z" fill="#201C33"/><path d="M956.347 441.416c.789-4.702 5.382-9.632 8.752-12.69 1.025-.932 1.792-2.223 2.198-3.701a9.263 9.263 0 00.08-4.572c-1.248-5.261-2.831-13.569-2.437-20.6.617-10.903 4.993-25.056 11.159-28.788 5.88 10.126 24.941 42.55 33.541 52.579 10.26 11.944 21.25 11.649 21.25 11.649s.71-9.633 2.15-13.689c1.43-4.058 12.89-16.603 19.81 1.167 6.92 17.772-6.91 37.283-6.91 37.283l5.73 21.558s5.61-2.106 10.57-4.412c5.5 13.19 11.16 25.741 14.41 31.407 6.67 11.648 26.7 41.942 26.7 41.942s-13.04 12.04-26.42 20.973c-13.36 8.935-37.23 17.459-37.23 17.459s-11.46-31.852-17.19-48.162c-5.72-16.308-15.59-37.674-15.59-37.674-11.78 2.716-25.162-5.05-28.966-15.929-3.804-10.877-10.803-38.78-10.803-38.78s-10.345-1.584-10.804-7.02z" fill="#F7EAE1"/><path d="M971.927 465.497c7.636-3.691 15.593-10.295 15.593-10.295" stroke="#8C239F" stroke-width="2.91" stroke-linecap="round" stroke-linejoin="round"/><path d="M982.267 431.723c-.967 0-1.751-1.402-1.751-3.13 0-1.73.784-3.13 1.751-3.13.968 0 1.751 1.4 1.751 3.13 0 1.728-.783 3.13-1.751 3.13z" fill="#360E0D"/><path d="M988.635 407.625c-4.139-2.137-14.483-3.498-20.225.969" stroke="#312B44" stroke-width="4.37" stroke-linecap="round" stroke-linejoin="round"/><path d="M998.729 455.587c3.381-.036 5.081-3.13 5.031-9.181-.04-6.05-1.79-9.109-5.17-9.072-3.384.036-5.081 3.137-5.037 9.186.045 6.051 1.766 9.139 5.176 9.067z" fill="#FE9074"/><path d="M1006.93 503.17c9.71-.776 25.3-16.315 31.83-29.907M1045.92 460.054c-4.61 6.622-12.25 3.691-14-.777M1045.29 424.909c-2.39 7.574-6.53 28.156-6.53 28.156" stroke="#8C239F" stroke-width="2.91" stroke-linecap="round" stroke-linejoin="round"/><path d="M976.081 371.065c-2.246-4.419-5.92-11.024-5.92-11.024" stroke="#271121" stroke-width="2.91" stroke-linecap="round" stroke-linejoin="round"/><path d="M1024.12 340.82c8.91.385 14.16 15.731 19.73 20.39 5.57 4.66 17.83 3.299 24.17 9.518 2.85 2.722 5.15 6.202 6.72 10.176 1.58 3.974 2.38 8.334 2.37 12.748 0 8.158 4.77 21.36 15.59 23.479 10.83 2.119 15.76 12.04 17.19 15.923M1083.62 459.874c-1.11-5.829-6.2-13.401-11.77-14.762-5.57-1.361-5.74-11.438-5.89-20.191-.16-8.753-7-16.507-15.3-18.259-8.29-1.752-11.77-13.787-14.3-18.662-2.53-4.877-9.55-14.177-18.78-13.401-9.23.777-8.91-19.03-14.3-23.695-5.395-4.666-13.53-1.356-13.53-1.356" stroke="#F8E3FC" stroke-width="2.91" stroke-linecap="round" stroke-linejoin="round"/><path d="M340.829 575.405c20.374 6.586 47.737 13.985 63.494 41.949 15.756 27.962 22.42 65.263 20.526 110.691-1.895 45.428-5.249 134.574-5.249 134.574s-54.9 12.233-113.145 5.244c-58.244-6.99-97.867-23.305-97.867-23.305s12.417-101.372 34.374-162.542C264.919 620.845 296.91 575.4 296.91 575.4s27.69-5.232 43.919.005z" stroke="#CF7D7A" stroke-width="3" stroke-linecap="round" stroke-linejoin="round"/><path d="M309.8 630.755c26.253 2.912 62.536 29.131 63.967 109.529 1.43 80.399-.952 127.584-.952 127.584M253.465 736.197c0 17.457 2.388 122.346 2.388 122.346" stroke="#CF7D7A" stroke-width="3" stroke-linecap="round" stroke-linejoin="round"/><path d="M643.877 484.231c6.448 6.411 13.605 19.228 12.174 33.213-1.43 13.985-10.265 22.72-10.265 22.72l-42.01-1.168-16.467-40.492 56.568-14.273z" fill="#C3825E"/><path d="M635.376 489.185c7.4 7.284 13.606 18.061 10.03 30.589-3.577 12.528-15.994 19.222-15.994 19.222M610.317 495.59l11.455 18.357s-16.23 11.071-18.618 15.434" stroke="#8C239F" stroke-width="2.91" stroke-linecap="round" stroke-linejoin="round"/><path d="M683.357 445.299c4.494 3.01 5.091 11.263 1.589 18.662-3.503 7.398-35.025 21.751-41.689 23.695-6.666 1.945-30.556 9.319-35.332 10.872-4.775 1.553-13.683 6.219-13.683 6.219s7.32 20.583 9.23 22.528c1.908 1.944 21.961 8.542 21.961 8.542s9.545-5.828 17.824-2.329c8.277 3.497 6.042 18.661 6.042 18.661s-5.727 7.375-29.914 13.595c-24.186 6.218-52.513 10.486-52.513 10.486s-34.037 133.605-49.966 183.709c-15.929 50.106-29.441 102.343-100.092 102.728l5.249-136.909s21.962-81.953 45.828-140.6c23.866-58.648 35.33-81.561 57.608-97.098 22.278-15.538 50.919-20.968 81.791-26.796 30.87-5.827 69.698-20.239 76.067-15.965z" fill="#DA9873"/><path d="M688.846 452.192c-6.906 4.948-19.574 7.573-24.344-3.202M650.655 543.656c-7.163.601-14.799 3.207-18.381 9.029-3.581 5.822-2.862 10.198-2.862 10.198M569.659 576.188c-12.827 1.553-23.314 2.131-23.314 2.131M590.981 514.819c5.012 4.37 15.292 12.431 15.292 12.431" stroke="#8C239F" stroke-width="2.91" stroke-linecap="round" stroke-linejoin="round"/><path d="M426.043 370.631c6.684 10.193 8.593 24.466 10.024 34.37 1.431 9.902-.953 12.816-.237 15.146.715 2.329 6.531 7.422 10.261 10.781 4.538 4.076 9.787 7.279 8.593 12.233-1.194 4.955-15.514 6.406-15.514 6.406 0-.548 1.48 4.16.242 30.004-.691 14.587-4.282 21.401-10.503 26.217-6.527 5.052-19.816 6.99-19.816 6.99l-25.301 80.495s-6.286 14.954-26.018 14.177c-19.732-.776-60.864-32.045-60.864-32.045s28.005-45.825 33.096-58.642c5.091-12.816 10.823-33.014 10.823-33.014s20.369-79.23 35.025-99.428c14.656-20.198 50.189-13.69 50.189-13.69z" fill="#DA9873"/><path d="M421.884 426.654c1.599 0 2.412-1.457 2.412-4.316 0-2.86-.813-4.31-2.412-4.31-1.598 0-2.412 1.457-2.412 4.31 0 2.854.814 4.316 2.412 4.316z" fill="#360E0D"/><path d="M399.111 449.653c-.052-6.327 2.777-11.491 6.319-11.534 3.542-.044 6.455 5.051 6.507 11.377.051 6.328-2.777 11.493-6.319 11.536-3.542.042-6.455-5.052-6.507-11.379z" fill="#C87763"/><path d="M430.34 405.001c-12.653-4.95-20.768.601-24.107 2.912" stroke="#201C33" stroke-width="3.73" stroke-linecap="round" stroke-linejoin="round"/><path d="M439.412 464.424c-3.103-.288-15.993-4.075-18.623-5.243M407.426 513.073c-15.121-.295-30.556-14.569-34.137-23.015" stroke="#8C239F" stroke-width="2.91" stroke-linecap="round" stroke-linejoin="round"/><path d="M430.102 375.869c-11.543 3.076-26.737 4.082-34.615 6.412-7.878 2.33-15.292 7.862-15.037 21.557.257 13.696 5.97 45.44 5.97 45.44s-4.296 1.457-7.642.873c-2.105-.405-4.129-1.293-5.964-2.618 0 0-6.206-22.142-12.653-29.132 0 0-.715 43.983-5.491 55.054-4.775 11.071-15.514 16.019-15.514 16.019s-11.696-27.38-15.292-51.852c-3.596-24.471-1.431-47.184 5.49-55.631 6.921-8.446 15.292-7.868 17.429-11.071 2.136-3.202-1.194-12.816-.242-24.177.953-11.359 7.4-16.603 13.369-17.458 5.969-.855 13.842 2.035 16.467-.602 2.623-2.636 1.672-18.662 13.131-21.557 11.46-2.896 18.381 10.776 22.199 13.4 3.818 2.625 8.352-9.319 16.466-12.817 8.115-3.498 27.931-2.625 34.616 18.349 5.884 18.392 1.203 40.781-32.687 49.811z" fill="#201C33"/><path d="M367.547 432.675c-3.582-9.319-6.685-18.061-13.606-20.39-6.921-2.33-15.751 2.329-17.187 14.563-1.436 12.232 5.255 30.292 11.218 35.831 5.964 5.538 10.266 7.573 15.293 6.405l4.282-36.409z" fill="#DA9873"/><path d="M348.229 425.685c3.103 4.66 11.698 25.634 12.649 28.837" stroke="#8C239F" stroke-width="3" stroke-linecap="round" stroke-linejoin="round"/><path d="M930.93 309.371c-28.443 1.203-45.931 37.096-32.306 55.18 14.157 18.801 25.316 3.805 21.429-6.725-7.049-19.096-33.052-17.373-44.225 2.065-11.174 19.439-5.569 39.733-5.569 39.733" stroke="#CE9BE1" stroke-width="3" stroke-linecap="round" stroke-linejoin="round" stroke-dasharray="174.39 174.39"/><path d="M263.804 508.287c-8.04-19.981-55.319-38.528-68.214-22.569-12.895 15.959-.725 28.896 6.67 25.555 13.441-6.02 17.265-21.672 10.985-44.632-6.279-22.961-32.183-31.264-44.166-27.14" stroke="#127B75" stroke-width="3" stroke-linecap="round" stroke-linejoin="round" stroke-dasharray="189.12 189.12"/><path d="M308.26 164.466c10.31.753 25.464 9.862 29.786 28.235 5.274 22.395 21.878 24.573 29.904 23.219 8.027-1.354 25.731 13.527 26.437 31.708.704 18.182 21.093 29.704 38.295 25.129" stroke="#F9759D" stroke-width="3" stroke-linecap="round" stroke-linejoin="round" stroke-dasharray="155.51 155.51"/><path d="M491.661 298.355c-1.696-10.087 3.629-19.942 11.894-22.013 8.265-2.07 16.342 4.428 18.038 14.515 1.697 10.086-3.628 19.942-11.894 22.013-8.265 2.07-16.341-4.428-18.038-14.515z" stroke="#64D0FF" stroke-width="3" stroke-linecap="round" stroke-linejoin="round" stroke-dasharray="89 89"/><path d="M946.873 274.66c-.722-5.398 2.279-10.488 6.702-11.368 4.423-.882 8.594 2.78 9.316 8.178.722 5.398-2.278 10.488-6.702 11.368-4.423.882-8.594-2.78-9.316-8.178z" stroke="#8C239F" stroke-width="3" stroke-linecap="round" stroke-linejoin="round" stroke-dasharray="47.27 47.27"/><path d="M791.837 706.311c-7.817-5.986-10.176-18.571-5.271-28.11 4.905-9.538 15.217-12.418 23.034-6.432 7.815 5.985 10.176 18.571 5.271 28.108-4.905 9.539-15.217 12.419-23.034 6.434z" stroke="#64D0FF" stroke-width="3" stroke-linecap="round" stroke-linejoin="round" stroke-dasharray="97.33 97.33"/><path d="M891.502 738.195c-.636-4.765 2.013-9.257 5.917-10.034 3.905-.777 7.586 2.456 8.222 7.221.637 4.763-2.013 9.256-5.916 10.034-3.905.776-7.586-2.456-8.223-7.221z" stroke="#8C239F" stroke-width="3" stroke-linecap="round" stroke-linejoin="round" stroke-dasharray="41.73 41.73"/><path d="M1050.41 208.402c-5.36-16.096.98-34.449 14.18-40.995 13.18-6.546 28.22 1.196 33.58 17.291 5.37 16.096-.98 34.451-14.16 40.995-13.19 6.546-28.23-1.195-33.6-17.291z" stroke="#FF6C46" stroke-width="3" stroke-linecap="round" stroke-linejoin="round" stroke-dasharray="150.17 150.17"/><path d="M1159.23 435.589c-7.11 0-12.88-7.043-12.88-15.732 0-8.687 5.77-15.73 12.88-15.73 7.12 0 12.89 7.043 12.89 15.73 0 8.689-5.77 15.732-12.89 15.732z" stroke="#8C239F" stroke-width="3" stroke-linecap="round" stroke-linejoin="round" stroke-dasharray="75.08 75.08"/><path d="M1120.09 498.504c-5.54 0-10.03-5.477-10.03-12.233 0-6.755 4.49-12.232 10.03-12.232 5.53 0 10.02 5.477 10.02 12.232 0 6.756-4.49 12.233-10.02 12.233z" stroke="#CE9BE1" stroke-width="3" stroke-linecap="round" stroke-linejoin="round" stroke-dasharray="58.39 58.39"/><path d="M280.833 451.897c-8.173 0-14.799-8.087-14.799-18.06 0-9.975 6.626-18.06 14.799-18.06 8.173 0 14.799 8.085 14.799 18.06 0 9.973-6.626 18.06-14.799 18.06z" stroke="#CE9BE1" stroke-width="3" stroke-linecap="round" stroke-linejoin="round" stroke-dasharray="86.21 86.21"/><path d="M453.214 524.993c-.391-5.772 3.126-10.838 7.856-11.316 4.729-.478 8.881 3.814 9.271 9.586.392 5.772-3.125 10.839-7.855 11.316-4.73.478-8.881-3.815-9.272-9.586z" stroke="#8C239F" stroke-width="3" stroke-linecap="round" stroke-linejoin="round" stroke-dasharray="50.06 50.06"/><path d="M889.048 463.551c-4.217 0-7.637-4.172-7.637-9.319 0-5.146 3.42-9.319 7.637-9.319s7.636 4.173 7.636 9.319c0 5.147-3.419 9.319-7.636 9.319z" stroke="#F8E3FC" stroke-width="3" stroke-linecap="round" stroke-linejoin="round" stroke-dasharray="44.48 44.48"/><path d="M579.292 658.631c-6.026-7.353-6.026-19.277 0-26.631 6.027-7.354 15.797-7.354 21.823 0 6.025 7.354 6.025 19.278 0 26.631-6.026 7.354-15.796 7.354-21.823 0z" stroke="#F8E3FC" stroke-width="3" stroke-linecap="round" stroke-linejoin="round" stroke-dasharray="89.89 89.89"/><path d="M592.64 703.488c-3.914-4.778-3.914-12.523 0-17.301 3.915-4.777 10.261-4.777 14.176 0 3.915 4.778 3.915 12.523 0 17.301-3.915 4.777-10.261 4.777-14.176 0z" stroke="#8C239F" stroke-width="3" stroke-linecap="round" stroke-linejoin="round" stroke-dasharray="58.39 58.39"/><path d="M300.607 716.485c-1.606-12.068 5.109-23.438 14.998-25.396 9.888-1.96 19.206 6.235 20.811 18.302 1.605 12.068-5.11 23.439-14.999 25.397-9.888 1.959-19.205-6.236-20.81-18.303z" stroke="#8C239F" stroke-width="3" stroke-linecap="round" stroke-linejoin="round" stroke-dasharray="105.67 105.67"/><path d="M932.47 519.479l48.694 19.812" stroke="#8C239F" stroke-width="3" stroke-linecap="round" stroke-linejoin="round" stroke-dasharray="47.58 47.58"/><path d="M263.168 350.53l-46.786-18.645" stroke="#8C239F" stroke-width="3" stroke-linecap="round" stroke-linejoin="round" stroke-dasharray="45.62 45.62"/><path d="M1166.39 601.046c15.29 0 23.88 13.978 28.65 29.124 4.78 15.146 16.22 29.131 29.6 24.472 13.37-4.66 24.81 6.989 26.72 22.137" stroke="#CD89E7" stroke-width="3" stroke-linecap="round" stroke-linejoin="round" stroke-dasharray="107.38 107.38"/><path d="M176.626 623.686c6.906-16.615 21.03-19.625 34.26-17.951 13.231 1.673 28.612-4.455 31.286-21.107 2.673-16.652 16.358-23.84 28.291-19.048" stroke="#8C239F" stroke-width="3" stroke-linecap="round" stroke-linejoin="round" stroke-dasharray="107.38 107.38"/><path d="M1144.96 271.821c1.08-33.588 22.7-60.865 41.27-58.88 18.58 1.985 44.5-3.996 54.47-44.605 9.97-40.609 28.38-60.512 51.55-55.715 23.19 4.796 38.75-15.296 43.13-45.334" stroke="#F6B60D" stroke-width="3" stroke-linecap="round" stroke-linejoin="round" stroke-dasharray="261.18 261.18"/><path d="M97.734 340.037c28.613 0 51.809-28.307 51.809-63.226s-23.196-63.226-51.81-63.226c-28.613 0-51.81 28.307-51.81 63.226s23.197 63.226 51.81 63.226z" stroke="#FDF1FF" stroke-width="3" stroke-linecap="round" stroke-linejoin="round" stroke-dasharray="301.81 301.81"/><path d="M167.642 115.162c17.386 0 31.48-17.195 31.48-38.405s-14.094-38.405-31.48-38.405c-17.385 0-31.479 17.195-31.479 38.405s14.094 38.405 31.479 38.405z" stroke="#F6B60D" stroke-width="3" stroke-dasharray="183.33 183.33"/><path d="M1309.32 462.215c46.25 0 83.75-45.745 83.75-102.174 0-56.428-37.5-102.173-83.75-102.173s-83.75 45.745-83.75 102.173c0 56.429 37.5 102.174 83.75 102.174z" stroke="#127B75" stroke-width="3" stroke-dasharray="487.73 487.73"/><mask id="a" maskUnits="userSpaceOnUse" x="0" y="0" width="1413" height="874"><path d="M1412.96.92H.938V873.33H1412.96V.919z" fill="#C4C4C4"/></mask></svg>