<svg width="232" height="232" viewBox="0 0 232 232" fill="none" xmlns="http://www.w3.org/2000/svg">
<path d="M0 116C0 51.935 51.935 0 116 0C180.065 0 232 51.935 232 116C232 180.065 180.065 232 116 232C51.935 232 0 180.065 0 116Z" fill="#1C182A"/>
<path d="M63.1055 116.794C62.3579 118.643 61.1764 119.907 59.561 120.586C57.9536 121.268 56.1189 121.276 54.0569 120.611C51.8016 119.884 50.2698 118.553 49.4615 116.621C48.6639 114.683 48.6926 112.388 49.5476 109.738L49.8945 108.663C50.4402 106.972 51.219 105.578 52.2308 104.481C53.2427 103.385 54.4108 102.672 55.7352 102.344C57.0702 102.01 58.4707 102.079 59.9367 102.552C61.9665 103.207 63.4262 104.278 64.3158 105.766C65.2054 107.253 65.4298 109.011 64.989 111.039L61.3644 109.869C61.6422 108.705 61.5891 107.781 61.2051 107.096C60.8318 106.407 60.0893 105.883 58.9778 105.524C57.7695 105.134 56.7231 105.277 55.8383 105.952C54.9642 106.622 54.2254 107.864 53.622 109.679L53.1932 111.008C52.58 112.909 52.4176 114.391 52.7063 115.453C53.0029 116.518 53.7715 117.251 55.0119 117.651C56.1315 118.012 57.0471 118.027 57.7585 117.697C58.4806 117.361 59.0547 116.67 59.4809 115.625L63.1055 116.794ZM65.2552 116.607C65.6736 115.31 66.2962 114.235 67.123 113.381C67.9498 112.527 68.9201 111.973 70.0337 111.719C71.1554 111.467 72.3365 111.542 73.5769 111.942C75.3409 112.511 76.6046 113.514 77.3679 114.952C78.1393 116.393 78.2906 118.06 77.8218 119.954L77.5575 120.856C76.9104 122.862 75.8309 124.292 74.3189 125.147C72.8094 125.994 71.1123 126.114 69.2275 125.506C67.3427 124.898 66.0314 123.807 65.2935 122.235C64.5637 120.666 64.5341 118.842 65.2045 116.764L65.2552 116.607ZM68.6651 117.987C68.2649 119.228 68.1918 120.254 68.4459 121.065C68.7026 121.868 69.2659 122.41 70.1358 122.69C70.9815 122.963 71.746 122.854 72.4291 122.363C73.1148 121.864 73.6876 120.902 74.1476 119.476C74.54 118.26 74.6064 117.241 74.3469 116.419C74.0874 115.597 73.5267 115.047 72.6648 114.769C71.811 114.493 71.0427 114.615 70.3598 115.132C69.6795 115.642 69.1146 116.594 68.6651 117.987ZM85.4195 116.029L85.0566 117.526C86.3493 116.689 87.785 116.526 89.3637 117.035C91.0472 117.578 91.9886 118.616 92.1881 120.147C93.5352 119.114 95.0584 118.872 96.758 119.421C98.1756 119.878 99.0969 120.633 99.522 121.686C99.9496 122.731 99.8958 124.084 99.3605 125.743L96.6669 134.092L93.1631 132.961L95.8528 124.624C96.0918 123.883 96.121 123.297 95.9401 122.865C95.7619 122.425 95.3063 122.087 94.5733 121.851C93.5262 121.513 92.6402 121.778 91.9152 122.647L89.0311 131.628L85.5393 130.501L88.2251 122.177C88.4693 121.42 88.497 120.824 88.3082 120.389C88.1193 119.955 87.6664 119.622 86.9495 119.391C85.9588 119.071 85.1094 119.251 84.4013 119.929L81.4194 129.172L77.9276 128.046L82.1453 114.973L85.4195 116.029ZM113.485 132.434C112.835 134.448 111.855 135.914 110.544 136.834C109.244 137.749 107.817 137.956 106.262 137.454C104.941 137.028 104.022 136.224 103.505 135.044L101.517 141.206L98.0252 140.079L103.864 121.98L107.102 123.025L106.81 124.344C107.983 123.602 109.25 123.451 110.612 123.89C112.223 124.41 113.283 125.41 113.792 126.891C114.302 128.371 114.219 130.158 113.543 132.253L113.485 132.434ZM110.075 131.054C110.467 129.837 110.552 128.829 110.33 128.028C110.117 127.23 109.599 126.698 108.777 126.433C107.682 126.08 106.794 126.256 106.113 126.961L104.386 132.313C104.535 133.313 105.157 133.989 106.252 134.343C107.92 134.881 109.194 133.784 110.075 131.054ZM119.814 141.826C117.897 141.208 116.524 140.116 115.695 138.55C114.874 136.987 114.78 135.226 115.411 133.269L115.52 132.931C115.944 131.618 116.576 130.528 117.416 129.66C118.259 128.785 119.233 128.219 120.338 127.962C121.455 127.7 122.609 127.761 123.801 128.145C125.589 128.722 126.813 129.74 127.472 131.197C128.139 132.657 128.139 134.423 127.471 136.493L127.011 137.918L118.686 135.233C118.524 136.123 118.641 136.917 119.038 137.614C119.444 138.314 120.082 138.804 120.952 139.085C122.297 139.519 123.505 139.371 124.577 138.641L125.673 141.115C124.91 141.687 124.014 142.038 122.985 142.169C121.958 142.291 120.901 142.177 119.814 141.826ZM122.877 130.969C122.184 130.745 121.545 130.797 120.959 131.124C120.381 131.453 119.892 132.033 119.49 132.864L124.347 134.431L124.437 134.153C124.67 133.375 124.653 132.711 124.386 132.162C124.121 131.606 123.618 131.208 122.877 130.969ZM136.982 129.116L135.945 132.33L138.181 133.051L137.354 135.613L135.119 134.892L133.014 141.416C132.858 141.899 132.839 142.276 132.957 142.545C133.075 142.814 133.395 143.033 133.919 143.202C134.305 143.327 134.657 143.409 134.973 143.449L134.119 146.095C133.367 146.083 132.628 145.96 131.904 145.727C129.455 144.937 128.605 143.297 129.355 140.809L131.627 133.765L129.718 133.149L130.545 130.588L132.454 131.204L133.491 127.99L136.982 129.116ZM142.133 149.027C140.216 148.408 138.843 147.316 138.014 145.75C137.193 144.187 137.099 142.427 137.73 140.47L137.839 140.131C138.263 138.818 138.895 137.728 139.735 136.861C140.577 135.986 141.551 135.42 142.657 135.163C143.773 134.9 144.927 134.961 146.12 135.346C147.908 135.923 149.131 136.94 149.79 138.398C150.458 139.858 150.457 141.623 149.789 143.693L149.33 145.119L141.005 142.433C140.842 143.324 140.96 144.117 141.357 144.815C141.763 145.515 142.401 146.005 143.27 146.286C144.616 146.72 145.824 146.572 146.896 145.841L147.991 148.316C147.229 148.888 146.333 149.239 145.304 149.369C144.277 149.492 143.22 149.378 142.133 149.027ZM145.195 138.169C144.503 137.946 143.863 137.997 143.278 138.324C142.7 138.654 142.211 139.234 141.809 140.065L146.666 141.632L146.756 141.354C146.989 140.576 146.972 139.912 146.704 139.363C146.439 138.806 145.936 138.408 145.195 138.169ZM157.298 139.219L156.919 140.764C158.23 139.898 159.671 139.718 161.242 140.225C162.627 140.672 163.527 141.411 163.941 142.443C164.355 143.475 164.309 144.803 163.803 146.427L161.078 154.872L157.587 153.746L160.284 145.385C160.523 144.644 160.535 144.056 160.319 143.622C160.106 143.18 159.625 142.838 158.876 142.596C157.893 142.279 157.021 142.46 156.26 143.14L153.285 152.358L149.794 151.232L154.011 138.159L157.298 139.219ZM173.457 140.884L172.42 144.098L174.655 144.819L173.829 147.38L171.594 146.659L169.489 153.184C169.333 153.667 169.314 154.043 169.431 154.312C169.549 154.582 169.87 154.801 170.393 154.97C170.78 155.094 171.131 155.177 171.447 155.216L170.594 157.862C169.842 157.851 169.103 157.728 168.378 157.494C165.929 156.704 165.08 155.065 165.829 152.577L168.102 145.533L166.193 144.917L167.019 142.356L168.928 142.971L169.965 139.758L173.457 140.884Z" fill="#E6DEE7"/>
<path d="M66.2413 103.26L74.0997 78.9024L82.6315 81.655C85.5869 82.6085 87.6451 83.9005 88.806 85.531C89.9705 87.1504 90.2001 89.053 89.4949 91.2389C89.1099 92.4323 88.4632 93.3873 87.5547 94.1039C86.6499 94.8094 85.5826 95.1977 84.3529 95.2689C85.5013 95.9841 86.2794 96.9309 86.6873 98.1092C87.1064 99.291 87.0947 100.568 86.6521 101.94C85.8965 104.282 84.5771 105.814 82.6941 106.536C80.811 107.259 78.483 107.185 75.7099 106.315L66.2413 103.26ZM74.6818 94.2728L72.5607 100.847L76.8601 102.234C78.0423 102.616 79.0523 102.634 79.8902 102.288C80.7429 101.936 81.3293 101.263 81.6496 100.27C82.3692 98.0397 81.5801 96.5353 79.2823 95.757L74.6818 94.2728ZM75.826 90.7262L79.5399 91.9244C82.0859 92.6966 83.6774 92.0957 84.3143 90.1216C84.6705 89.0175 84.6025 88.1213 84.1104 87.4331C83.633 86.7373 82.7029 86.1663 81.3199 85.7201L77.8068 84.5867L75.826 90.7262ZM93.9352 112.195L88.9165 110.575L96.7749 86.218L101.794 87.8372L93.9352 112.195ZM106.866 106.891L104.097 115.473L99.0785 113.854L106.937 89.4965L116.439 92.5622C118.268 93.1523 119.766 94.005 120.933 95.1203C122.111 96.2393 122.874 97.5382 123.222 99.0173C123.574 100.485 123.496 102.005 122.988 103.578C122.218 105.965 120.79 107.585 118.705 108.439C116.634 109.285 114.154 109.243 111.266 108.311L106.866 106.891ZM108.178 102.826L112.661 104.272C113.988 104.701 115.098 104.714 115.991 104.313C116.895 103.915 117.534 103.136 117.909 101.976C118.294 100.783 118.254 99.7046 117.788 98.7418C117.323 97.779 116.475 97.0868 115.245 96.6651L110.644 95.1809L108.178 102.826ZM145.429 115.971C144.655 118.369 143.553 120.334 142.123 121.868C140.692 123.401 139.027 124.403 137.127 124.873C135.238 125.348 133.272 125.255 131.232 124.597C129.213 123.946 127.568 122.879 126.298 121.398C125.027 119.917 124.246 118.138 123.956 116.062C123.669 113.975 123.897 111.758 124.642 109.412L125.031 108.208C125.804 105.81 126.914 103.841 128.359 102.3C129.819 100.752 131.492 99.7458 133.377 99.2829C135.278 98.8124 137.243 98.9046 139.272 99.5594C141.302 100.214 142.945 101.286 144.201 102.775C145.472 104.256 146.241 106.05 146.51 108.156C146.793 110.254 146.55 112.497 145.78 114.884L145.429 115.971ZM140.7 113.226C141.524 110.672 141.692 108.584 141.206 106.962C140.72 105.34 139.629 104.255 137.934 103.708C136.25 103.165 134.738 103.404 133.399 104.425C132.064 105.435 130.982 107.203 130.154 109.732L129.771 110.919C128.968 113.406 128.803 115.483 129.275 117.15C129.747 118.817 130.842 119.927 132.559 120.482C134.243 121.025 135.749 120.784 137.077 119.76C138.409 118.724 139.489 116.942 140.316 114.414L140.7 113.226ZM167.54 126.983C166.505 129.543 164.869 131.293 162.632 132.234C160.406 133.178 157.866 133.19 155.011 132.269C151.888 131.261 149.767 129.42 148.648 126.744C147.544 124.06 147.583 120.884 148.767 117.214L149.248 115.725C150.003 113.383 151.082 111.453 152.483 109.935C153.884 108.417 155.501 107.43 157.335 106.975C159.183 106.513 161.122 106.609 163.152 107.264C165.963 108.17 167.984 109.654 169.215 111.713C170.447 113.773 170.758 116.207 170.148 119.014L165.129 117.395C165.514 115.783 165.44 114.503 164.908 113.556C164.391 112.601 163.363 111.876 161.824 111.379C160.151 110.839 158.703 111.037 157.477 111.971C156.267 112.898 155.244 114.619 154.409 117.132L153.815 118.972C152.966 121.604 152.741 123.656 153.141 125.127C153.552 126.602 154.616 127.616 156.333 128.17C157.883 128.67 159.151 128.691 160.136 128.233C161.136 127.768 161.931 126.812 162.521 125.364L167.54 126.983Z" fill="#E6DEE7"/>
</svg>
