<svg width="700" height="716" viewBox="0 0 700 716" fill="none" xmlns="http://www.w3.org/2000/svg">
<path d="M71 77.5C71 34.6979 105.698 0 148.5 0C191.302 0 226 34.6979 226 77.5C226 120.302 191.302 155 148.5 155C105.698 155 71 120.302 71 77.5Z" fill="#127B75"/>
<path d="M357.454 653.865C371.313 682.688 348.816 715.309 315.081 715.309H-236.304C-270.038 715.309 -292.534 682.688 -278.676 653.865L-2.98297 80.4742C13.4676 46.2594 65.3102 46.2594 81.7608 80.4741L357.454 653.865Z" fill="#FF6C46"/>
<path d="M179.182 366.204C206.818 366.204 231.179 374.475 252.262 391.019C273.346 407.277 283.888 429.81 283.888 458.618C283.888 489.137 272.634 514.238 250.126 533.919C227.902 553.314 198.983 563.012 163.368 563.012C129.179 563.012 102.396 557.165 83.0221 545.471C63.6478 533.777 53.9607 518.232 53.9607 498.835C53.9607 486.571 57.5221 477.586 64.6451 471.881C72.0529 465.891 80.8853 462.896 91.1423 462.896C98.5501 462.896 104.818 465.321 109.947 470.17C115.36 475.019 119.634 480.866 122.768 487.711C125.902 494.557 129.036 501.403 132.17 508.248C135.589 515.094 139.863 520.941 144.992 525.79C150.405 530.639 156.673 533.063 163.796 533.063C175.763 533.063 185.45 527.787 192.858 517.233C200.55 506.679 204.397 490.564 204.397 468.887C204.397 420.397 187.871 396.152 154.821 396.152C140.005 396.152 124.905 402.286 109.519 414.55C101.827 420.825 92.9943 422.109 83.0221 418.401C73.335 414.693 69.0613 408.418 70.2009 399.575L86.0138 264.377C86.8686 258.102 90.7149 254.964 97.5529 254.964H262.092C269.215 254.964 272.777 258.529 272.777 265.66V305.45C272.777 312.58 269.215 316.146 262.092 316.146H116.785L106.528 391.447C127.612 374.618 151.829 366.204 179.182 366.204Z" fill="#201C33"/>
<path d="M661.845 408.822C661.845 520.961 571.305 611.778 459.507 611.778C347.71 611.778 257.171 520.961 257.171 408.822H661.845Z" fill="#64D0FF"/>
<path d="M661.842 408.822C661.842 438.832 642.16 468.841 602.795 491.742C524.064 537.546 395.734 537.546 317.004 491.742C277.638 468.841 257.956 438.832 257.956 408.822C257.956 296.684 348.496 205.867 460.293 205.867C571.302 205.867 661.842 296.684 661.842 408.822Z" fill="#127B75"/>
<path d="M624.907 589.153L555.013 698.595L550.043 695.581L619.936 586.439L624.907 589.153ZM584.688 618.096C584.688 623.925 583.332 629.302 580.621 634.226C577.91 639.151 574.194 643.02 569.474 645.834C564.855 648.648 559.834 650.055 554.411 650.055C547.381 650.055 541.557 647.844 536.938 643.422C532.318 639 530.008 632.92 530.008 625.182C530.008 619.252 531.364 613.825 534.075 608.901C536.787 603.976 540.452 600.107 545.072 597.293C549.792 594.479 554.863 593.072 560.286 593.072C567.315 593.072 573.14 595.283 577.759 599.705C582.378 604.127 584.688 610.258 584.688 618.096ZM544.921 611.916C544.921 620.056 546.929 626.337 550.946 630.759C554.963 635.081 560.988 637.694 569.022 638.598C569.524 635.885 569.775 633.422 569.775 631.211C569.775 623.071 567.767 616.84 563.75 612.519C559.733 608.197 553.708 605.534 545.674 604.529C545.172 607.243 544.921 609.705 544.921 611.916ZM616.019 640.859C623.049 640.859 628.874 643.07 633.493 647.492C638.112 651.914 640.422 658.044 640.422 665.883C640.422 671.712 639.066 677.089 636.355 682.014C633.643 686.938 629.928 690.807 625.208 693.621C620.589 696.435 615.568 697.842 610.145 697.842C603.115 697.842 597.291 695.631 592.672 691.209C588.052 686.787 585.742 680.707 585.742 672.968C585.742 667.039 587.098 661.612 589.809 656.688C592.521 651.763 596.186 647.894 600.806 645.08C605.525 642.266 610.597 640.859 616.019 640.859ZM600.655 659.703C600.655 667.843 602.664 674.124 606.681 678.546C610.697 682.868 616.722 685.48 624.756 686.385C625.258 683.672 625.509 681.209 625.509 678.998C625.509 670.858 623.501 664.627 619.484 660.305C615.467 655.984 609.442 653.321 601.408 652.316C600.906 655.03 600.655 657.492 600.655 659.703Z" fill="#201C33"/>
</svg>
