<svg width="205" height="205" viewBox="0 0 205 205" fill="none" xmlns="http://www.w3.org/2000/svg">
<path d="M0 102.5C0 45.8908 45.8908 0 102.5 0C159.109 0 205 45.8908 205 102.5C205 159.109 159.109 205 102.5 205C45.8908 205 0 159.109 0 102.5Z" fill="#64D0FF"/>
<path d="M92.3014 145.123C93.4942 146.206 94.1229 147.454 94.1874 148.868C94.2561 150.276 93.7508 151.669 92.6715 153.047C91.491 154.554 90.0555 155.344 88.3651 155.417C86.6735 155.482 84.9426 154.82 83.1722 153.433L82.4539 152.87C81.3239 151.985 80.4844 151.006 79.9355 149.933C79.3865 148.86 79.1721 147.776 79.2924 146.68C79.4114 145.575 79.8546 144.533 80.622 143.554C81.6844 142.198 82.9035 141.39 84.2792 141.13C85.6549 140.871 87.0499 141.191 88.464 142.091L86.5667 144.512C85.7616 143.977 85.0463 143.759 84.4206 143.86C83.7937 143.95 83.1894 144.367 82.6075 145.109C81.9751 145.917 81.7914 146.75 82.0563 147.608C82.3201 148.458 83.0558 149.364 84.2634 150.328L85.1513 151.024C86.4212 152.019 87.4991 152.555 88.3849 152.632C89.275 152.704 90.0447 152.326 90.694 151.497C91.28 150.75 91.5469 150.06 91.4946 149.428C91.4411 148.787 91.0776 148.159 90.4041 147.545L92.3014 145.123ZM92.7948 143.396C91.9285 142.718 91.287 141.946 90.8704 141.081C90.4538 140.216 90.3044 139.326 90.4222 138.411C90.5442 137.49 90.9299 136.616 91.5791 135.787C92.5025 134.609 93.6156 133.931 94.9184 133.753C96.2255 133.57 97.5316 133.921 98.8367 134.804L99.4466 135.256C100.786 136.306 101.57 137.523 101.796 138.908C102.017 140.288 101.634 141.608 100.648 142.867C99.6613 144.126 98.4693 144.816 97.0719 144.937C95.6788 145.052 94.288 144.566 92.8997 143.479L92.7948 143.396ZM94.792 141.197C95.6207 141.846 96.3779 142.187 97.0637 142.221C97.744 142.25 98.3119 141.974 98.7673 141.393C99.2099 140.828 99.3404 140.218 99.1587 139.564C98.9716 138.905 98.4018 138.202 97.4494 137.456C96.6369 136.819 95.883 136.485 95.1876 136.452C94.4922 136.42 93.919 136.691 93.4678 137.267C93.0209 137.837 92.8985 138.454 93.1006 139.116C93.2973 139.774 93.8611 140.467 94.792 141.197ZM98.0158 127.905L99.0493 128.597C98.7755 127.384 99.0517 126.25 99.8781 125.195C100.759 124.071 101.808 123.647 103.025 123.922C102.618 122.613 102.859 121.391 103.748 120.256C104.491 119.309 105.32 118.821 106.237 118.792C107.148 118.76 108.158 119.178 109.267 120.046L114.844 124.416L113.01 126.757L107.441 122.393C106.946 122.005 106.509 121.82 106.131 121.836C105.748 121.849 105.365 122.1 104.981 122.589C104.433 123.289 104.387 124.035 104.844 124.827L110.847 129.517L109.019 131.85L103.458 127.493C102.952 127.096 102.509 126.909 102.127 126.931C101.745 126.953 101.366 127.204 100.991 127.683C100.472 128.344 100.371 129.038 100.688 129.764L106.863 134.602L105.035 136.935L96.3019 130.092L98.0158 127.905ZM118.313 111.16C119.658 112.214 120.497 113.367 120.829 114.617C121.16 115.857 120.918 116.997 120.104 118.035C119.413 118.918 118.548 119.39 117.508 119.453L121.625 122.678L119.797 125.011L107.706 115.537L109.401 113.374L110.32 113.964C110.084 112.868 110.323 111.865 111.036 110.955C111.879 109.879 112.933 109.355 114.197 109.381C115.461 109.408 116.793 109.969 118.192 111.066L118.313 111.16ZM116.316 113.36C115.503 112.724 114.763 112.378 114.094 112.323C113.429 112.262 112.882 112.506 112.452 113.055C111.878 113.787 111.764 114.509 112.109 115.222L115.684 118.024C116.483 118.19 117.17 117.907 117.743 117.175C118.616 116.061 118.14 114.79 116.316 113.36ZM127.233 108.937C126.23 110.217 125.019 110.953 123.601 111.145C122.187 111.331 120.827 110.912 119.519 109.887L119.293 109.71C118.416 109.023 117.766 108.24 117.343 107.362C116.914 106.479 116.757 105.582 116.87 104.673C116.983 103.753 117.351 102.895 117.975 102.099C118.911 100.905 120.023 100.261 121.312 100.168C122.605 100.069 123.943 100.562 125.326 101.645L126.278 102.391L121.921 107.953C122.55 108.324 123.185 108.457 123.824 108.35C124.468 108.237 125.017 107.891 125.473 107.31C126.177 106.411 126.402 105.454 126.147 104.438L128.328 104.297C128.549 105.035 128.566 105.812 128.377 106.628C128.184 107.441 127.802 108.21 127.233 108.937ZM119.857 103.587C119.495 104.05 119.356 104.549 119.44 105.084C119.529 105.614 119.832 106.146 120.35 106.682L122.892 103.438L122.706 103.292C122.181 102.898 121.674 102.726 121.183 102.776C120.687 102.822 120.245 103.092 119.857 103.587ZM122.423 92.3327L124.57 94.0149L125.74 92.5217L127.451 93.8624L126.281 95.3556L130.639 98.7707C130.962 99.0236 131.242 99.1431 131.479 99.1289C131.716 99.1148 131.971 98.9328 132.245 98.5831C132.448 98.3248 132.608 98.0813 132.726 97.8527L134.494 99.2377C134.275 99.8047 133.977 100.33 133.597 100.815C132.315 102.45 130.836 102.637 129.159 101.375L124.453 97.6882L123.454 98.9635L121.743 97.6228L122.742 96.3475L120.595 94.6653L122.423 92.3327ZM138.987 93.9357C137.983 95.2164 136.773 95.9525 135.355 96.1441C133.941 96.3303 132.58 95.9112 131.273 94.8866L131.047 94.7096C130.17 94.0223 129.519 93.2394 129.096 92.3607C128.668 91.4778 128.51 90.5815 128.624 89.6718C128.736 88.7525 129.104 87.8947 129.728 87.0983C130.664 85.9037 131.777 85.2599 133.066 85.1668C134.359 85.0683 135.696 85.5608 137.079 86.6443L138.032 87.3906L133.674 92.9518C134.304 93.3233 134.938 93.4557 135.578 93.3489C136.222 93.2367 136.771 92.89 137.226 92.3088C137.93 91.4102 138.155 90.4529 137.9 89.437L140.082 89.2964C140.303 90.034 140.319 90.8111 140.131 91.6276C139.937 92.4399 139.556 93.2093 138.987 93.9357ZM131.611 88.5862C131.248 89.049 131.109 89.5479 131.194 90.083C131.282 90.6127 131.585 91.1456 132.103 91.6817L134.646 88.437L134.46 88.2915C133.935 87.8975 133.427 87.7255 132.937 87.7753C132.441 87.8209 131.999 88.0912 131.611 88.5862ZM135.817 79.6598L136.883 80.3777C136.592 79.1422 136.857 77.9998 137.68 76.9505C138.405 76.025 139.216 75.5491 140.114 75.523C141.011 75.4968 142.005 75.902 143.095 76.7387L148.737 81.1593L146.909 83.4919L141.324 79.1156C140.829 78.7277 140.387 78.555 139.998 78.5974C139.603 78.6355 139.209 78.9048 138.817 79.4052C138.303 80.0617 138.197 80.7733 138.499 81.54L144.658 86.3654L142.83 88.698L134.097 81.8552L135.817 79.6598ZM141.621 67.8298L143.768 69.512L144.938 68.0188L146.649 69.3595L145.479 70.8527L149.838 74.2678C150.161 74.5208 150.441 74.6402 150.678 74.626C150.914 74.6119 151.17 74.4299 151.444 74.0802C151.646 73.8219 151.807 73.5784 151.925 73.3498L153.693 74.7348C153.474 75.3018 153.175 75.8275 152.796 76.3117C151.514 77.9475 150.035 78.1344 148.357 76.8724L143.652 73.1854L142.653 74.4606L140.941 73.1199L141.941 71.8446L139.794 70.1624L141.621 67.8298Z" fill="#1C182A"/>
<path d="M76.0641 111.051L72.0347 116.194L86.0213 127.153L83.3109 130.612L69.3244 119.653L65.3492 124.726L62.5472 122.531L73.2622 108.856L76.0641 111.051ZM99.9462 105.011C100.204 106.217 100.095 107.552 99.6184 109.015C99.1344 110.472 98.3504 111.893 97.2662 113.276C96.1279 114.729 94.8129 115.758 93.3212 116.363C91.8279 116.955 90.243 117.078 88.5663 116.732C86.8957 116.378 85.2395 115.571 83.5978 114.309L82.4563 113.415C80.7805 112.102 79.5513 110.686 78.7688 109.167C77.9846 107.634 77.6852 106.085 77.8706 104.518C78.0545 102.938 78.7065 101.432 79.8268 100.003C81.3867 98.0117 83.083 96.8285 84.9156 96.453C86.7404 96.0716 88.6412 96.4878 90.618 97.7017L87.9799 101.069C86.8986 100.469 85.9272 100.26 85.0658 100.441C84.2103 100.615 83.4212 101.163 82.6985 102.085C81.777 103.261 81.5173 104.503 81.9194 105.811C82.3216 107.118 83.3922 108.46 85.1311 109.835L86.2034 110.675C87.9638 112.054 89.5556 112.762 90.979 112.798C92.4024 112.834 93.62 112.206 94.6319 110.914C95.6498 109.615 96.0988 108.472 95.979 107.485L93.0849 105.217L90.6184 108.365L88.0702 106.369L93.247 99.7615L99.9462 105.011ZM115.278 89.8137L112.567 93.2729L96.2447 91.3517L107.291 100.007L104.581 103.466L87.7922 90.3116L90.5025 86.8525L106.857 88.7802L95.7877 80.1071L98.4891 76.6594L115.278 89.8137ZM122.687 68.838C124.391 70.3841 125.289 72.1671 125.381 74.1871C125.48 76.1994 124.758 78.1895 123.216 80.1573C121.529 82.3097 119.479 83.4385 117.064 83.5438C114.647 83.6354 112.175 82.6904 109.646 80.7088L108.619 79.9047C107.005 78.6399 105.806 77.2412 105.022 75.7087C104.237 74.1762 103.931 72.6274 104.103 71.0623C104.273 69.4835 104.906 67.9946 106.002 66.5955C107.52 64.6584 109.262 63.5045 111.227 63.1338C113.192 62.7631 115.185 63.2203 117.205 64.5054L114.495 67.9646C113.345 67.1999 112.323 66.8892 111.429 67.0325C110.533 67.162 109.67 67.7572 108.839 68.818C107.935 69.9711 107.673 71.1611 108.051 72.3881C108.428 73.6014 109.479 74.8964 111.204 76.273L112.473 77.2668C114.287 78.6882 115.827 79.4543 117.092 79.565C118.364 79.6681 119.463 79.1277 120.391 77.9439C121.228 76.8754 121.609 75.89 121.535 74.9879C121.458 74.072 120.939 73.1751 119.977 72.2971L122.687 68.838Z" fill="#1C182A"/>
</svg>
