<svg width="97" height="31" viewBox="0 0 97 31" fill="none" xmlns="http://www.w3.org/2000/svg">
<path d="M20.9813 11.3673C21.5799 11.3673 21.8792 11.6132 21.8792 12.105V12.2603C21.8792 12.6227 21.5018 13.1274 20.7471 13.7745C19.9923 14.4216 19.4978 15.03 19.2636 15.5994L14.2276 28.9945C13.9934 29.6674 13.5379 30.004 12.8612 30.004H9.42573C8.82717 30.004 8.3587 29.6674 8.02037 28.9945L2.08644 15.5994C1.87824 15.1335 1.47483 14.564 0.876237 13.891C0.303666 13.1922 0.0173798 12.6485 0.0173798 12.2603V12.105C0.0173798 11.6132 0.316679 11.3673 0.915278 11.3673H9.89427C10.4668 11.3673 10.7531 11.6262 10.7531 12.1439V12.2991C10.7531 12.558 10.636 12.8686 10.4018 13.231C10.1675 13.5675 9.9983 13.8781 9.89427 14.1628C9.81613 14.4475 9.88118 14.9652 10.0894 15.7158L13.4468 24.4906L16.2966 16.6865C16.5829 15.5994 16.622 14.8487 16.4137 14.4346C16.2055 13.9946 15.8932 13.5933 15.4768 13.231C15.0864 12.8427 14.8912 12.5321 14.8912 12.2991V12.1439C14.8912 11.6262 15.1906 11.3673 15.7891 11.3673H20.9813Z" fill="#E6DEE7"/>
<path d="M26.3683 9.07653C25.041 9.07653 23.961 8.71416 23.1281 7.98941C22.2953 7.23876 21.8789 6.30692 21.8789 5.1939C21.8789 4.08088 22.2953 3.16199 23.1281 2.43723C23.961 1.68659 25.041 1.31126 26.3683 1.31126C27.6697 1.31126 28.7367 1.68659 29.5696 2.43723C30.4024 3.16199 30.8188 4.08088 30.8188 5.1939C30.8188 6.30692 30.4024 7.23876 29.5696 7.98941C28.7367 8.71416 27.6697 9.07653 26.3683 9.07653ZM22.1912 30.004C21.5666 30.004 21.2543 29.758 21.2543 29.2663V29.1109C21.2543 28.8003 21.5145 28.3215 22.035 27.6744C22.5555 27.0273 22.8158 26.3802 22.8158 25.7331V18.3561C22.8158 17.683 22.5555 17.0359 22.035 16.4148C21.5145 15.7677 21.2543 15.3275 21.2543 15.0946V14.9393C21.2543 14.6287 21.5536 14.331 22.1521 14.0464L28.0471 11.1732C28.5936 10.9403 29.023 10.9143 29.3353 11.0955C29.6477 11.2767 29.8038 11.5743 29.8038 11.9885V25.7331C29.8038 26.3802 30.0901 27.0273 30.6627 27.6744C31.2612 28.3215 31.5605 28.8003 31.5605 29.1109V29.2663C31.5605 29.758 31.2352 30.004 30.5845 30.004H22.1912Z" fill="#E6DEE7"/>
<path d="M42.7089 30.3922C39.6899 30.3922 37.1263 29.4734 35.0182 27.6355C32.9361 25.7719 31.8951 23.4423 31.8951 20.6468C31.8951 17.8513 32.9361 15.5477 35.0182 13.7357C37.1004 11.8979 39.5728 10.979 42.4356 10.979C45.4026 10.979 47.9272 11.8979 50.0092 13.7357C52.0913 15.5735 53.1323 17.9031 53.1323 20.7245C53.1323 23.52 52.1173 25.8366 50.0872 27.6744C48.0573 29.4863 45.5978 30.3922 42.7089 30.3922ZM43.5287 28.4897C45.1944 28.4897 46.0272 26.8979 46.0272 23.7141C46.0272 22.5493 45.858 21.1645 45.5197 19.5597C45.2074 17.9548 44.6608 16.4406 43.88 15.017C43.1253 13.5933 42.2794 12.8816 41.3426 12.8816C40.4316 12.8816 39.781 13.2827 39.3906 14.0852C39.0002 14.8875 38.805 16.1041 38.805 17.7348C38.805 18.589 38.9091 19.5985 39.1173 20.7633C39.3256 21.9281 39.6119 23.1058 39.9762 24.2965C40.3405 25.4613 40.835 26.4578 41.4597 27.2861C42.1103 28.0886 42.8 28.4897 43.5287 28.4897Z" fill="#E6DEE7"/>
<path d="M54.5344 30.004C53.9357 30.004 53.6365 29.7581 53.6365 29.2663V29.1109C53.6365 28.8003 53.8837 28.3344 54.3782 27.7132C54.8987 27.0661 55.159 26.419 55.159 25.7719V8.02823C55.159 7.35524 54.8987 6.70814 54.3782 6.08691C53.8837 5.4398 53.6365 4.98683 53.6365 4.72799V4.57268C53.6365 4.28796 53.9227 3.99029 54.4953 3.67967L60.3902 0.806521C60.9367 0.573563 61.3662 0.560621 61.6785 0.767695C62.0168 0.948884 62.186 1.23361 62.186 1.62188V25.7719C62.186 26.419 62.4723 27.0661 63.0448 27.7132C63.6174 28.3344 63.9037 28.8003 63.9037 29.1109V29.2663C63.9037 29.7581 63.5914 30.004 62.9668 30.004H54.5344Z" fill="#E6DEE7"/>
<path d="M80.4458 23.8694C80.7321 23.5847 81.0445 23.507 81.3828 23.6364C81.7472 23.74 81.9163 23.9988 81.8903 24.4129C81.8383 25.7071 81.0835 27.0273 79.6261 28.3732C78.1686 29.7193 76.2817 30.3922 73.9654 30.3922C71.1286 30.3922 68.8122 29.4863 67.0165 27.6744C65.2207 25.8625 64.3227 23.4941 64.3227 20.5691C64.3227 17.7736 65.2597 15.4829 67.1336 13.6969C69.0335 11.885 71.2978 10.979 73.9264 10.979C76.2947 10.979 78.1296 11.5226 79.4308 12.6097C80.7321 13.6969 81.3828 14.9264 81.3828 16.2983C81.3828 17.3854 80.8753 18.1878 79.8603 18.7055L72.0916 23.0541C73.1586 24.7365 74.642 25.5777 76.542 25.5777C77.3488 25.5777 78.1035 25.4225 78.8063 25.1119C79.5349 24.7754 80.0815 24.3612 80.4458 23.8694ZM73.2236 12.8816C72.4429 12.8816 71.8053 13.2698 71.3108 14.0464C70.8423 14.8229 70.6081 15.7935 70.6081 16.9583C70.6081 18.5113 70.8032 19.8703 71.1936 21.0351L74.8243 18.8608C75.5009 18.3949 75.8392 17.7348 75.8392 16.8807C75.8392 16.0265 75.6181 15.1464 75.1756 14.2404C74.7591 13.3345 74.1085 12.8816 73.2236 12.8816Z" fill="#E6DEE7"/>
<path d="M90.4885 30.3922C88.511 30.3922 86.9494 29.771 85.8042 28.5286C84.6852 27.2861 84.1256 25.5131 84.1256 23.2093V14.0075H82.6421C82.3818 14.0075 82.1606 13.9298 81.9784 13.7745C81.8223 13.5933 81.7442 13.3733 81.7442 13.1145V12.2603C81.7442 11.6649 82.0435 11.3673 82.6421 11.3673H83.3839C84.5811 11.3673 85.6091 11.0178 86.4679 10.319C87.3268 9.59423 87.8864 8.63651 88.1466 7.44584C88.2768 6.77285 88.6281 6.43634 89.2008 6.43634H90.0988C90.8009 6.43634 91.1524 6.77285 91.1524 7.44584V11.3673H95.1739C95.4338 11.3673 95.642 11.4579 95.7986 11.6391C95.9802 11.7943 96.0718 12.0014 96.0718 12.2603V13.1145C96.0718 13.3733 95.9802 13.5933 95.7986 13.7745C95.642 13.9298 95.4338 14.0075 95.1739 14.0075H91.1524V23.3258C91.1524 23.9729 91.3215 24.4906 91.6597 24.8789C91.9987 25.2413 92.4152 25.4225 92.9091 25.4225C94.0286 25.4225 94.8874 24.9436 95.4863 23.9859C95.6678 23.7529 95.876 23.6235 96.111 23.5976C96.345 23.5458 96.5399 23.5847 96.6965 23.7141C96.8781 23.8435 96.9697 24.0247 96.9697 24.2577C96.9697 25.8884 96.3842 27.325 95.2131 28.5674C94.0677 29.784 92.4926 30.3922 90.4885 30.3922Z" fill="#E6DEE7"/>
</svg>
