<svg width="300" height="300" viewBox="0 0 300 300" fill="none" xmlns="http://www.w3.org/2000/svg">
<path d="M0 150C0 67.1573 67.1573 0 150 0C232.843 0 300 67.1573 300 150C300 232.843 232.843 300 150 300C67.1573 300 0 232.843 0 150Z" fill="#F6B60D"/>
<path d="M120.405 206.206C121.626 208.157 122.006 210.116 121.547 212.086C121.096 214.049 119.861 215.769 117.843 217.245C115.636 218.859 113.356 219.389 111.003 218.835C108.653 218.268 106.529 216.688 104.632 214.095L103.862 213.042C102.652 211.387 101.877 209.715 101.538 208.028C101.199 206.34 101.324 204.766 101.914 203.306C102.506 201.833 103.519 200.571 104.954 199.522C106.94 198.069 108.929 197.431 110.921 197.607C112.914 197.784 114.708 198.764 116.303 200.549L112.756 203.143C111.857 202.095 110.957 201.519 110.058 201.415C109.161 201.296 108.169 201.635 107.081 202.431C105.899 203.296 105.323 204.37 105.355 205.653C105.388 206.923 106.049 208.455 107.336 210.248L108.287 211.548C109.648 213.409 110.922 214.564 112.11 215.014C113.306 215.458 114.511 215.236 115.725 214.348C116.82 213.547 117.454 212.702 117.627 211.813C117.802 210.911 117.546 209.907 116.858 208.801L120.405 206.206ZM121.649 204.099C120.721 202.83 120.138 201.52 119.9 200.169C119.662 198.819 119.802 197.537 120.318 196.324C120.843 195.106 121.712 194.053 122.926 193.165C124.652 191.902 126.445 191.401 128.305 191.662C130.174 191.917 131.834 192.905 133.286 194.625L133.949 195.483C135.385 197.446 135.99 199.423 135.765 201.415C135.534 203.398 134.496 205.065 132.652 206.414C130.807 207.763 128.901 208.25 126.933 207.874C124.972 207.493 123.249 206.286 121.761 204.252L121.649 204.099ZM125.247 201.848C126.135 203.062 127.044 203.825 127.974 204.137C128.898 204.441 129.786 204.281 130.637 203.659C131.465 203.053 131.88 202.265 131.884 201.295C131.882 200.316 131.371 199.129 130.351 197.734C129.48 196.544 128.573 195.792 127.63 195.478C126.686 195.163 125.793 195.315 124.949 195.932C124.114 196.543 123.707 197.343 123.728 198.331C123.743 199.312 124.25 200.484 125.247 201.848ZM134.727 184.897L135.879 186.249C135.973 184.475 136.792 183.023 138.337 181.893C139.985 180.688 141.591 180.511 143.157 181.362C143.105 179.404 143.91 177.817 145.573 176.601C146.961 175.586 148.29 175.237 149.562 175.553C150.828 175.861 152.054 176.827 153.242 178.451L159.218 186.621L155.789 189.128L149.822 180.97C149.291 180.245 148.763 179.821 148.237 179.697C147.706 179.566 147.081 179.762 146.364 180.287C145.339 181.037 144.987 182.044 145.308 183.31L151.745 192.086L148.328 194.585L142.37 186.439C141.828 185.698 141.29 185.268 140.756 185.151C140.223 185.033 139.605 185.231 138.903 185.744C137.934 186.453 137.526 187.368 137.681 188.489L144.296 197.534L140.879 200.033L131.523 187.24L134.727 184.897ZM169.02 169.814C170.462 171.785 171.168 173.694 171.14 175.541C171.114 177.375 170.341 178.848 168.819 179.961C167.527 180.906 166.154 181.221 164.7 180.904L169.111 186.934L165.694 189.434L152.74 171.722L155.908 169.404L156.943 170.571C157.044 168.973 157.761 167.686 159.093 166.712C160.67 165.559 162.322 165.246 164.05 165.773C165.778 166.299 167.392 167.587 168.891 169.637L169.02 169.814ZM165.422 172.065C164.551 170.875 163.667 170.112 162.768 169.777C161.878 169.436 161.031 169.56 160.227 170.148C159.155 170.932 158.718 171.881 158.915 172.995L162.746 178.232C163.781 178.77 164.834 178.647 165.906 177.863C167.538 176.67 167.376 174.737 165.422 172.065ZM182.044 170.288C180.168 171.661 178.218 172.204 176.194 171.918C174.178 171.626 172.469 170.522 171.068 168.607L170.826 168.276C169.886 166.991 169.296 165.662 169.054 164.29C168.807 162.91 168.938 161.617 169.447 160.41C169.957 159.189 170.796 158.152 171.963 157.299C173.713 156.019 175.492 155.565 177.3 155.936C179.116 156.302 180.765 157.498 182.246 159.523L183.267 160.919L175.12 166.877C175.842 167.632 176.663 168.06 177.584 168.161C178.512 168.256 179.402 167.992 180.253 167.369C181.57 166.406 182.25 165.177 182.293 163.682L185.347 164.334C185.365 165.433 185.086 166.508 184.511 167.558C183.93 168.6 183.108 169.51 182.044 170.288ZM173.974 160.075C173.297 160.57 172.912 161.203 172.821 161.971C172.737 162.734 172.948 163.584 173.452 164.522L178.205 161.045L178.006 160.773C177.437 160.028 176.806 159.595 176.112 159.473C175.412 159.344 174.7 159.544 173.974 160.075ZM181.759 145.67L184.059 148.815L186.247 147.215L188.08 149.721L185.893 151.321L190.562 157.706C190.908 158.179 191.247 158.452 191.578 158.524C191.909 158.596 192.331 158.445 192.843 158.07C193.222 157.794 193.537 157.521 193.788 157.252L195.682 159.842C195.162 160.537 194.547 161.144 193.837 161.663C191.441 163.415 189.335 163.099 187.517 160.714L182.476 153.82L180.608 155.187L178.774 152.68L180.642 151.314L178.342 148.169L181.759 145.67ZM203.81 154.368C201.934 155.741 199.984 156.284 197.96 155.997C195.944 155.706 194.236 154.602 192.835 152.687L192.592 152.356C191.653 151.071 191.062 149.742 190.821 148.37C190.574 146.99 190.705 145.697 191.213 144.49C191.724 143.269 192.563 142.232 193.729 141.379C195.479 140.099 197.258 139.645 199.066 140.016C200.882 140.382 202.531 141.578 204.013 143.603L205.033 144.999L196.887 150.957C197.608 151.712 198.429 152.14 199.35 152.24C200.279 152.336 201.169 152.072 202.02 151.449C203.336 150.486 204.016 149.257 204.06 147.762L207.113 148.414C207.132 149.513 206.853 150.588 206.278 151.638C205.697 152.68 204.874 153.59 203.81 154.368ZM195.741 144.155C195.063 144.65 194.679 145.282 194.587 146.051C194.504 146.814 194.714 147.664 195.219 148.602L199.972 145.125L199.773 144.853C199.204 144.108 198.572 143.675 197.878 143.553C197.179 143.424 196.466 143.624 195.741 144.155ZM204.88 133.586L206.067 134.987C206.146 133.175 206.954 131.707 208.491 130.583C209.846 129.591 211.146 129.251 212.391 129.563C213.635 129.875 214.845 130.817 216.019 132.39L222.064 140.655L218.647 143.154L212.663 134.972C212.132 134.247 211.591 133.838 211.04 133.745C210.482 133.645 209.837 133.863 209.104 134.399C208.142 135.102 207.721 136.04 207.84 137.211L214.438 146.232L211.021 148.732L201.664 135.939L204.88 133.586ZM217.341 119.645L219.641 122.79L221.829 121.19L223.662 123.697L221.475 125.297L226.144 131.681C226.49 132.154 226.829 132.427 227.16 132.499C227.491 132.572 227.913 132.42 228.425 132.046C228.804 131.769 229.119 131.496 229.37 131.228L231.264 133.817C230.744 134.512 230.129 135.119 229.419 135.638C227.023 137.39 224.917 137.074 223.099 134.689L218.058 127.796L216.19 129.162L214.356 126.656L216.224 125.289L213.924 122.144L217.341 119.645Z" fill="#1C182A"/>
<path d="M104.235 185.073L118.545 174.607L122.505 180.021L101.456 195.416L77.5327 162.708L84.2721 157.779L104.235 185.073ZM148.213 154.873C148.063 157.213 147.175 159.598 145.55 162.028C143.914 164.443 141.748 166.636 139.052 168.608C136.222 170.678 133.287 171.883 130.247 172.221C127.211 172.533 124.249 171.941 121.361 170.444C118.488 168.936 115.876 166.606 113.524 163.453L111.897 161.229C109.509 157.964 107.991 154.741 107.343 151.56C106.698 148.353 106.949 145.365 108.096 142.595C109.247 139.8 111.215 137.383 114 135.346C117.879 132.509 121.591 131.219 125.136 131.477C128.67 131.72 131.931 133.461 134.921 136.7L128.361 141.497C126.692 139.844 125.024 138.961 123.355 138.849C121.701 138.725 119.976 139.32 118.179 140.635C115.887 142.311 114.772 144.448 114.834 147.046C114.896 149.645 116.162 152.65 118.634 156.06L120.162 158.149C122.67 161.579 125.217 163.693 127.801 164.493C130.386 165.292 132.936 164.771 135.452 162.931C137.983 161.08 139.393 159.221 139.683 157.354L135.559 151.715L129.426 156.201L125.795 151.236L138.667 141.821L148.213 154.873ZM157.121 154.703L133.198 121.994L144.655 113.615C148.624 110.712 152.193 109.274 155.362 109.301C158.52 109.313 161.173 110.786 163.32 113.722C164.492 115.324 165.115 117.041 165.189 118.871C165.253 120.687 164.759 122.416 163.708 124.059C165.692 123.251 167.628 123.133 169.518 123.705C171.423 124.266 173.048 125.468 174.396 127.31C176.696 130.455 177.434 133.57 176.61 136.655C175.787 139.741 173.529 142.656 169.836 145.403L157.121 154.703ZM153.444 135.531L159.901 144.359L165.674 140.137C167.262 138.976 168.224 137.698 168.559 136.303C168.899 134.882 168.582 133.505 167.607 132.172C165.416 129.176 162.754 128.79 159.621 131.012L153.444 135.531ZM149.96 130.768L154.948 127.121C158.303 124.574 159.012 121.976 157.073 119.325C155.989 117.842 154.777 117.097 153.437 117.088C152.101 117.053 150.505 117.715 148.648 119.073L143.93 122.524L149.96 130.768ZM202.312 97.6852C204.547 100.74 205.997 103.76 206.662 106.745C207.317 109.714 207.266 112.521 206.511 115.165L215.069 115.457L213.555 122.392L202.5 121.892C201.805 122.607 201.03 123.277 200.177 123.902C197.466 125.884 194.571 127.002 191.491 127.254C188.412 127.507 185.406 126.854 182.474 125.298C179.532 123.726 176.903 121.373 174.587 118.239L173.404 116.621C171.049 113.402 169.556 110.149 168.923 106.865C168.295 103.554 168.56 100.475 169.719 97.6277C170.882 94.7544 172.826 92.3209 175.552 90.3274C178.277 88.3338 181.178 87.2237 184.254 86.9972C187.333 86.7447 190.348 87.4248 193.297 89.0375C196.251 90.6242 198.9 93.0201 201.244 96.225L202.312 97.6852ZM194.398 101.197C191.89 97.7679 189.37 95.6111 186.838 94.7271C184.307 93.8431 181.903 94.2336 179.626 95.8986C177.365 97.5526 176.267 99.7123 176.331 102.378C176.385 105.028 177.647 108.059 180.119 111.469L181.285 113.064C183.728 116.404 186.237 118.546 188.812 119.49C191.388 120.434 193.829 120.062 196.135 118.375C198.396 116.721 199.487 114.567 199.408 111.912C199.317 109.243 198.036 106.203 195.565 102.792L194.398 101.197Z" fill="#1C182A"/>
</svg>
